<?xml version="1.0" standalone="yes"?>
<svg xmlns="http://www.w3.org/2000/svg" width="737" height="481">
<path style="fill:#ffffff; stroke:none;" d="M0 0L0 425L1 425C33.8685 381.861 106.823 381.294 142.421 421.039C151.939 431.667 159.296 444.395 163.656 458C165.283 463.076 165.659 476.694 169.742 479.972C174.096 483.468 187.545 481 193 481C193 475.523 190.513 461.694 194.603 457.603C198.694 453.513 212.523 456 218 456L218 481L290 481L290 456L315 456L315 481L349 481L349 477L320 477L320 456L349 456L349 416L373 416L373 456L417 456L417 477L373 477L373 481C388.944 481 411.542 485.185 426.787 480.682C430.391 479.617 432.044 474.824 434.043 472C437.463 467.171 441.869 463.279 447 460.337C463.64 450.796 483.723 450.679 502 454.887C506.668 455.962 516.123 457.13 518.972 461.419C521.919 465.854 520 475.82 520 481C528.028 481 541.305 483.576 548.7 480.397C554.41 477.942 558.898 469.762 564 465.9C575.813 456.956 591.176 452.029 606 452.029C620.726 452.029 636.327 456.644 648 465.68C653.237 469.733 657.904 478.031 664.039 480.397C672.123 483.513 685.36 481 694 481L694 456L719 456L719 481L737 481L737 0L0 0z"/>
<path style="fill:#f3c49a; stroke:none;" d="M244 46L244 47L249 47L244 46z"/>
<path style="fill:#ef801c; stroke:none;" d="M249 46.5054C243.825 47.0717 237.715 47.3291 233.054 49.8395C216.538 58.7348 225.199 86.2343 222.535 101C219.665 116.914 208.519 128.98 195 137.07C179.092 146.59 159.685 147.998 143 139.731C129.905 133.242 116.669 120.078 101.001 123.175C87.7528 125.794 75.3813 149.685 73.3256 162C69.9177 182.416 93.5545 189.033 106.999 198.164C123.034 209.055 131.759 226.544 130.896 246C130.038 265.334 120.375 281.39 104 291.532C95.0411 297.081 80.3782 300.764 74.5332 310.104C66.9449 322.23 76.6876 339.927 83.9537 349.83C86.2635 352.978 89.3203 356.034 92.1698 358.7C109.262 374.691 126.57 354.559 143 348.544C160.072 342.293 177.123 343.217 193 352.671C212.025 364.001 221.66 380.101 222.907 402C223.532 412.998 219.432 424.903 225.97 434.996C233.647 446.848 253.384 447.051 266 445.83C271.115 445.335 278.364 444.817 282.871 442.252C298.73 433.223 290.898 402.184 294.428 387C297.729 372.805 308.724 362.331 321 355.338C337.772 345.783 355.593 344.737 373 353.13C386.148 359.47 399.228 372.915 414.996 369.305C428.899 366.122 440.924 340.779 442.699 328C445.232 309.765 422.908 303.69 411 295.899C393.564 284.491 383.658 265.888 385.09 245C386.435 225.37 396.384 210.704 413 200.467C422.023 194.908 435.284 191.745 440.91 181.996C447.937 169.822 438.365 152.895 431.115 143C428.366 139.248 425.597 135.258 421.985 132.275C404.187 117.574 382.321 141.247 365 146.381C349.713 150.913 334.359 146.509 321 138.768C304.877 129.425 294.374 113.657 293.09 95C292.248 82.7834 296.535 66.65 288.895 56.0934C281.171 45.4214 260.807 45.2133 249 46.5054z"/>
<path style="fill:#f3c49a; stroke:none;" d="M251.667 46.3333L252.333 46.6667L251.667 46.3333M261.667 46.3333L262.333 46.6667L261.667 46.3333M264 46L264 47L268 47L264 46M237 47L238 48L237 47M241 47L242 48L241 47M271.667 47.3333L272.333 47.6667L271.667 47.3333M235 48L236 49L235 48M276 48L277 49L276 48M233 49L234 50L233 49M279 49L280 50L279 49M231 50L232 51L231 50M282 50L283 51L282 50M229 51L230 52L229 51M285 52L286 53L285 52M287 53L288 54L287 53M228 54L229 55L228 54M227 55L228 56L227 55M288 55L289 56L288 55M226 56L227 57L226 56M225.333 57.6667L225.667 58.3333L225.333 57.6667M290 58L291 59L290 58M224 60L225 61L224 60M291 60L292 61L291 60M292 62L293 63L292 62M223 63L223 66L224 66L223 63M292 65L293 66L292 65M223.333 68.6667L223.667 69.3333L223.333 68.6667M293.333 68.6667L293.667 69.3333L293.333 68.6667M293 71L293 79L294 79L293 71M223 81L224 82L223 81M293.333 81.6667L293.667 82.3333L293.333 81.6667M223 85L223 88L224 88L223 85M223 89L223 92L224 92L223 89M293 90L294 91L293 90M293 94L293 99L294 99L293 94M222 97L222 102L223 102L222 97M294 104L295 105L294 104M221 105L222 106L221 105M220 108L221 109L220 108M295.333 108.667L295.667 109.333L295.333 108.667M219 111L220 112L219 111M296 111L297 112L296 111M218 113L219 114L218 113M297 113L298 114L297 113M217 115L218 116L217 115M298 115L299 116L298 115M216 117L217 118L216 117M299 117L300 118L299 117M300 119L301 120L300 119M301 120L302 121L301 120M213 121L214 122L213 121M100 122L101 123L100 122M104.667 122.333L105.333 122.667L104.667 122.333M108 122L108 123L112 123L108 122M302 122L303 123L302 122M98 123L99 124L98 123M113 123L114 124L113 123M96 124L97 125L96 124M115 124L116 125L115 124M94 125L95 126L94 125M117 125L118 126L117 125M304 125L305 126L304 125M120 126L121 127L120 126M209 126L210 127L209 126M305 126L306 127L305 126M208 127L209 128L208 127M306 127L307 128L306 127M404 127L405 128L404 127M412.667 127.333L413.333 127.667L412.667 127.333M123 128L124 129L123 128M207 128L208 129L207 128M402 128L403 129L402 128M415 128L416 129L415 128M125 129L126 130L125 129M399 129L400 130L399 129M417.667 129.333L418.333 129.667L417.667 129.333M90 130L91 131L90 130M126 130L127 131L126 130M204 130L205 131L204 130M309 130L310 131L309 130M396 130L397 131L396 130M89 131L90 132L89 131M128 131L129 132L128 131M310 131L311 132L310 131M394 131L395 132L394 131M88 132L89 133L88 132M201 132L202 133L201 132M311.667 132.333L312.333 132.667L311.667 132.333M392 132L393 133L392 132M131 133L132 134L131 133M200 133L201 134L200 133M313 133L314 134L313 133M391 133L392 134L391 133M423 133L424 134L423 133M87 134L88 135L87 134M133 134L134 135L133 134M314 134L315 135L314 134M389 134L390 135L389 134M424 134L425 135L424 134M86 135L87 136L86 135M134 135L135 136L134 135M197 135L198 136L197 135M315 135L316 136L315 135M388 135L389 136L388 135M425 135L426 136L425 135M85 136L86 137L85 136M196 136L197 137L196 136M317 136L318 137L317 136M386 136L387 137L386 136M138 137L139 138L138 137M194 137L195 138L194 137M318 137L319 138L318 137M384 137L385 138L384 137M84 138L85 139L84 138M140 138L141 139L140 138M192 138L193 139L192 138M320 138L321 139L320 138M383 138L384 139L383 138M427 138L428 139L427 138M83 139L84 140L83 139M142 139L143 140L142 139M190 139L191 140L190 139M322 139L323 140L322 139M381 139L382 140L381 139M428 139L429 140L428 139M144 140L145 141L144 140M187 140L188 141L187 140M323.667 140.333L324.333 140.667L323.667 140.333M379 140L380 141L379 140M82 141L83 142L82 141M146.667 141.333L147.333 141.667L146.667 141.333M184 141L185 142L184 141M326 141L327 142L326 141M377 141L378 142L377 141M149.667 142.333L150.333 142.667L149.667 142.333M182 142L183 143L182 142M328 142L329 143L328 142M375 142L376 143L375 142M430 142L431 143L430 142M152.667 143.333L153.333 143.667L152.667 143.333M180 143L181 144L180 143M330 143L331 144L330 143M372.667 143.333L373.333 143.667L372.667 143.333M431 143L432 144L431 143M156.667 144.333L157.333 144.667L156.667 144.333M174 144L175 145L174 144M177 144L178 145L177 144M332 144L333 145L332 144M369 144L370 145L369 144M165 145L165 146L168 146L165 145M171 145L172 146L171 145M334.667 145.333L335.333 145.667L334.667 145.333M367 145L368 146L367 145M79 146L80 147L79 146M338 146L339 147L338 146M364.667 146.333L365.333 146.667L364.667 146.333M433 146L434 147L433 146M78.3333 147.667L78.6667 148.333L78.3333 147.667M342 147L342 148L346 148L342 147M359 147L360 148L359 147M351.667 148.333L352.333 148.667L351.667 148.333M435 149L436 150L435 149M76.3333 151.667L76.6667 152.333L76.3333 151.667M436 151L437 152L436 151M526 152L526 153L530 153L526 152z"/>
<path style="fill:#ef801c; stroke:none;" d="M530 152.595C520.82 152.967 505.187 154.905 500.457 164.019C495.998 172.607 501.449 182.416 502.7 191C505.107 207.522 500.024 220.824 487 231.674C476.423 240.487 465.23 242.896 452 239.985C435.361 236.322 420.276 224.044 410.184 245C406.256 253.158 401.716 268.121 408.303 275.906C414.432 283.149 425.679 284.247 434 287.746C446.737 293.102 455.864 303.659 459.51 317C463.312 330.913 459.931 345.419 449.816 355.83C441.336 364.558 424.844 372.381 430.61 387C434.748 397.492 446.986 411.36 459 411.888C469.724 412.36 478.068 399.612 486 393.938C498.382 385.081 512.418 385.784 526 391.326C539.167 396.697 546.99 406.896 551.456 420C556.282 434.162 554.515 451.875 575 450.791C585.044 450.259 601.109 447.849 604.991 436.999C607.762 429.253 602.304 418.81 601.289 411C599.156 394.582 605.575 381.877 618 371.301C627.35 363.343 639.002 359.802 651 362.924C665.128 366.599 683.788 379.147 693.009 360.999C697.019 353.106 703.301 336.913 698.151 328.465C692.973 319.969 678.572 318.355 670 314.935C658.24 310.243 649.545 300.156 646.159 288C641.825 272.44 644.576 258.73 656.039 247.015C662.746 240.161 674.538 234.561 675.656 224C677.03 211.019 656.11 189.061 643 191.289C634.032 192.814 627.584 202.421 620.714 207.571C605.32 219.111 587.065 218.137 571 208.049C562.339 202.61 556.353 194.711 553.217 185C548.589 170.667 550.3 151.771 530 152.595z"/>
<path style="fill:#f3c49a; stroke:none;" d="M532.667 152.333L533.333 152.667L532.667 152.333M538 152L539 153L538 152M437 153L438 154L437 153M520 153L520 154L523 154L520 153M539 153L540 154L539 153M75 154L76 155L75 154M515 154L515 155L518 155L515 154M541 154L542 155L541 154M438.333 155.667L438.667 156.333L438.333 155.667M511.667 155.333L512.333 155.667L511.667 155.333M543 155L544 156L543 155M509 156L510 157L509 156M544 156L545 157L544 156M74 157L75 158L74 157M545 157L546 158L545 157M439 158L440 159L439 158M505.667 158.333L506.333 158.667L505.667 158.333M546 158L547 159L546 158M503 159L504 160L503 159M73 160L74 161L73 160M440 160L441 161L440 160M547 160L548 161L547 160M441 162L442 163L441 162M500.333 162.667L500.667 163.333L500.333 162.667M548.333 163.667L548.667 164.333L548.333 163.667M72 164L72 171L73 171L72 164M253.667 165.333L254.333 165.667L253.667 165.333M257 165L257 166L260 166L257 165M442 165L443 166L442 165M499 165L500 166L499 165M242 166L242 167L247 167L242 166z"/>
<path style="fill:#ffffff; stroke:none;" d="M247 166.428C234.342 168.241 221.66 171.568 211 178.904C202.128 185.009 193.631 192.797 187.916 202C150.931 261.558 204.239 336.339 272.285 325.559C283.724 323.747 295.504 319.622 305 312.958C361.632 273.211 343.761 189.224 280 169.347C269.554 166.091 257.869 164.872 247 166.428z"/>
<path style="fill:#f3c49a; stroke:none;" d="M267 166L267 167L270 167L267 166M239.667 167.333L240.333 167.667L239.667 167.333M272.667 167.333L273.333 167.667L272.667 167.333M549.333 167.667L549.667 168.333L549.333 167.667M234 168L235 169L234 168M277.667 168.333L278.333 168.667L277.667 168.333M498 168L499 169L498 168M231.667 169.333L232.333 169.667L231.667 169.333M280.667 169.333L281.333 169.667L280.667 169.333M227 170L227 171L230 171L227 170M283.667 170.333L284.333 170.667L283.667 170.333M443 170L444 171L443 170M224 171L225 172L224 171M286.667 171.333L287.333 171.667L286.667 171.333M73 172L74 173L73 172M222 172L223 173L222 172M290 172L291 173L290 172M550.333 172.667L550.667 173.333L550.333 172.667M220 173L221 174L220 173M292 173L293 174L292 173M443 173L443 176L444 176L443 173M74 174L75 175L74 174M218 174L219 175L218 174M294 174L295 175L294 174M216 175L217 176L216 175M214 176L215 177L214 176M297.667 176.333L298.333 176.667L297.667 176.333M76 177L77 178L76 177M213 177L214 178L213 177M299 177L300 178L299 177M551.333 177.667L551.667 178.333L551.333 177.667M211 178L212 179L211 178M300.667 178.333L301.333 178.667L300.667 178.333M442.333 178.667L442.667 179.333L442.333 178.667M499.333 178.667L499.667 179.333L499.333 178.667M78 180L79 181L78 180M208 180L209 181L208 180M79 181L80 182L79 181M207 181L208 182L207 181M305 181L306 182L305 181M441 181L442 182L441 181M552.333 181.667L552.667 182.333L552.333 181.667M81 182L82 183L81 182M206 182L207 183L206 182M307 182L308 183L307 182M500.333 182.667L500.667 183.333L500.333 182.667M82 183L83 184L82 183M205 183L206 184L205 183M83 184L84 185L83 184M204 184L205 185L204 184M309 184L310 185L309 184M439 184L440 185L439 184M85 185L86 186L85 185M202 185L203 186L202 185M311 185L312 186L311 185M438 185L439 186L438 185M501.333 185.667L501.667 186.333L501.333 185.667M553.333 185.667L553.667 186.333L553.333 185.667M87 186L88 187L87 186M312 186L313 187L312 186M437 186L438 187L437 186M89 187L90 188L89 187M199 187L200 188L199 187M90 188L91 189L90 188M434 188L435 189L434 188M554 188L555 189L554 188M92 189L93 190L92 189M198 189L199 190L198 189M315 189L316 190L315 189M433 189L434 190L433 189M502.333 189.667L502.667 190.333L502.333 189.667M94 190L95 191L94 190M197 190L198 191L197 190M316 190L317 191L316 190M431 190L432 191L431 190M555 190L556 191L555 190M643 190L643 191L646 191L643 190M95.6667 191.333L96.3333 191.667L95.6667 191.333M196 191L197 192L196 191M317 191L318 192L317 191M430 191L431 192L430 191M640 191L641 192L640 191M648.667 191.333L649.333 191.667L648.667 191.333M318 192L319 193L318 192M428 192L429 193L428 192M556 192L557 193L556 192M639 192L640 193L639 192M99.6667 193.333L100.333 193.667L99.6667 193.333M194 193L195 194L194 193M426 193L427 194L426 193M637 193L638 194L637 193M653 193L654 194L653 193M101 194L102 195L101 194M319 194L320 195L319 194M424 194L425 195L424 194M635 194L636 195L635 194M655 194L656 195L655 194M102.667 195.333L103.333 195.667L102.667 195.333M320 195L321 196L320 195M422 195L423 196L422 195M557 195L558 196L557 195M634 195L635 196L634 195M656 195L657 196L656 195M321 196L322 197L321 196M420 196L421 197L420 196M502 196L503 197L502 196M558 196L559 197L558 196M633 196L634 197L633 196M322 197L323 198L322 197M418 197L419 198L418 197M559 197L560 198L559 197M659 197L660 198L659 197M107 198L108 199L107 198M190 198L191 199L190 198M323 198L324 199L323 198M416 198L417 199L416 198M109 199L110 200L109 199M324 199L325 200L324 199M414 199L415 200L414 199M503 199L503 205L504 205L503 199M560 199L561 200L560 199M630 199L631 200L630 199M110 200L111 201L110 200M412 200L413 201L412 200M561 200L562 201L561 200M628 200L629 201L628 200M111 201L112 202L111 201M562 201L563 202L562 201M663 201L664 202L663 201M113 202L114 203L113 202M187 202L188 203L187 202M326 202L327 203L326 202M409 202L410 203L409 202M563 202L564 203L563 202M664 202L665 203L664 202M564 203L565 204L564 203M625 203L626 204L625 203M186 204L187 205L186 204M665 204L666 205L665 204M328 205L329 206L328 205M623 205L624 206L623 205M666 205L667 206L666 205M117 206L118 207L117 206M185 206L186 207L185 206M404 206L405 207L404 206M502.333 206.667L502.667 207.333L502.333 206.667M568 206L569 207L568 206M118 207L119 208L118 207M329 207L330 208L329 207M569 207L570 208L569 207M621 207L622 208L621 207M668 207L669 208L668 207M119 208L120 209L119 208M401 208L402 209L401 208M571 208L572 209L571 208M619 208L620 209L619 208M330 209L331 210L330 209M400 209L401 210L400 209M502 209L503 210L502 209M573 209L574 210L573 209M669 209L670 210L669 209M183 210L184 211L183 210M399 210L400 211L399 210M575 210L576 211L575 210M121 211L122 212L121 211M182.333 211.667L182.667 212.333L182.333 211.667M331 211L332 212L331 211M398 211L399 212L398 211M501 211L501 214L502 214L501 211M577 211L578 212L577 211M614.667 211.333L615.333 211.667L614.667 211.333M671 211L672 212L671 211M579 212L580 213L579 212M612 212L613 213L612 212M122 213L123 214L122 213M332 213L333 214L332 213M396 213L397 214L396 213M582.667 213.333L583.333 213.667L582.667 213.333M611 213L612 214L611 213M123 214L124 215L123 214M181 214L182 215L181 214M395 214L396 215L395 214M585 214L585 215L588 215L585 214M608.667 214.333L609.333 214.667L608.667 214.333M672 214L673 215L672 214M333 215L334 216L333 215M500 215L501 216L500 215M589 215L589 216L595 216L589 215M604.667 215.333L605.333 215.667L604.667 215.333M124 216L125 217L124 216M394 216L395 217L394 216M597 216L597 217L600 217L597 216M674 216L675 217L674 216M334 217L334 220L335 220L334 217M499 217L500 218L499 217M125 218L126 219L125 218M498 218L499 219L498 218M675.333 218.667L675.667 219.333L675.333 218.667M179 219L180 220L179 219M392 219L393 220L392 219M126 220L127 221L126 220M335 221L336 222L335 221M391 221L392 222L391 221M496 221L497 222L496 221M127 222L127 225L128 225L127 222M178.333 222.667L178.667 223.333L178.333 222.667M676 222L676 225L677 225L676 222M336 223L337 224L336 223M390 223L391 224L390 223M494 224L495 225L494 224M337 225L337 230L338 230L337 225M389 225L390 226L389 225M493 225L494 226L493 225M675 225L675 228L676 228L675 225M177 226L178 227L177 226M128 227L129 228L128 227M388.333 227.667L388.667 228.333L388.333 227.667M490 228L491 229L490 228M489 229L490 230L489 229M129 230L129 234L130 234L129 230M387.333 230.667L387.667 231.333L387.333 230.667M488 230L489 231L488 230M673 230L674 231L673 230M176 231L176 235L177 235L176 231M338 231L339 232L338 231M424.667 231.333L425.333 231.667L424.667 231.333M487 231L488 232L487 231M420 232L421 233L420 232M427 232L427 233L432 233L427 232M486 232L487 233L486 232M433 233L434 234L433 233M484 233L485 234L484 233M671 233L672 234L671 233M386 234L386 237L387 237L386 234M436 234L437 235L436 234M483 234L484 235L483 234M416 235L417 236L416 235M438.667 235.333L439.333 235.667L438.667 235.333M130 236L131 237L130 236M415 236L416 237L415 236M441 236L442 237L441 236M480 236L481 237L480 236M175 237L175 246L176 246L175 237M339 237L339 242L340 242L339 237M414 237L415 238L414 237M444 237L445 238L444 237M477 237L478 238L477 237M666 237L667 238L666 237M446 238L446 239L449 239L446 238M476 238L477 239L476 238M665 238L666 239L665 238M413 239L414 240L413 239M449 239L449 240L452 240L449 239M474 239L475 240L474 239M664 239L665 240L664 239M130 240L130 250L131 250L130 240M454 240L455 241L454 240M469 240L469 241L472 241L469 240M552 240L552 241L556 241L552 240M385 241L385 245L386 245L385 241M461 241L461 242L467 242L461 241M538.667 241.333L539.333 241.667L538.667 241.333z"/>
<path style="fill:#ffffff; stroke:none;" d="M540 241.468C532.15 242.939 523.584 246.486 517 250.963C461.669 288.587 503.584 372.612 566 361.671C573.408 360.373 581.859 356.361 587.996 352.112C640.868 315.507 602.277 229.799 540 241.468z"/>
<path style="fill:#f3c49a; stroke:none;" d="M557 241L557 242L562 242L557 241M411 242L412 243L411 242M535 242L536 243L535 242M563 242L563 243L567 243L563 242M660 242L661 243L660 242M532.667 243.333L533.333 243.667L532.667 243.333M568 243L569 244L568 243M659 243L660 244L659 243M410 244L411 245L410 244M529.667 244.333L530.333 244.667L529.667 244.333M658 244L659 245L658 244M409 245L410 246L409 245M526.667 245.333L527.333 245.667L526.667 245.333M573.667 245.333L574.333 245.667L573.667 245.333M657 245L658 246L657 245M524 246L525 247L524 246M576 246L577 247L576 246M385 247L385 250L386 250L385 247M579 247L580 248L579 247M655 247L656 248L655 247M175 248L175 254L176 254L175 248M521 248L522 249L521 248M580 248L581 249L580 248M654 248L655 249L654 248M408 249L409 250L408 249M582 249L583 250L582 249M653 249L654 250L653 249M517 250L518 251L517 250M584 250L585 251L584 250M652 250L653 251L652 250M407.333 251.667L407.667 252.333L407.333 251.667M516 251L517 252L516 251M585 251L586 252L585 251M385 252L385 257L386 257L385 252M514 252L515 253L514 252M129 253L129 257L130 257L129 253M513 253L514 254L513 253M588 253L589 254L588 253M650 253L651 254L650 253M339 254L339 259L340 259L339 254M406 254L406 257L407 257L406 254M512 254L513 255L512 254M649 254L650 255L649 254M591 255L592 256L591 255M592 256L593 257L592 256M648 256L649 257L648 256M593 257L594 258L593 257M386 258L387 259L386 258M405 258L405 262L406 262L405 258M507 258L508 259L507 258M594 258L595 259L594 258M176 259L177 260L176 259M595 259L596 260L595 259M128 260L129 261L128 260M646 260L647 261L646 260M338 261L338 264L339 264L338 261M597 261L598 262L597 261M386 262L387 263L386 262M504 262L505 263L504 262M598 262L599 263L598 262M645 262L645 265L646 265L645 262M127 263L128 264L127 263M503 263L504 264L503 263M177.333 264.667L177.667 265.333L177.333 264.667M387 264L387 268L388 268L387 264M404 264L404 268L405 268L404 264M599 264L600 265L599 264M126 266L127 267L126 266M337.333 266.667L337.667 267.333L337.333 266.667M501 266L502 267L501 266M601 266L602 267L601 266M644 266L644 274L645 274L644 266M178 267L179 268L178 267M500 267L501 268L500 267M125 268L126 269L125 268M602 268L603 269L602 268M179 269L180 270L179 269M336.333 269.667L336.667 270.333L336.333 269.667M388 269L389 270L388 269M499 269L500 270L499 269M124 270L125 271L124 270M405.333 270.667L405.667 271.333L405.333 270.667M604 270L605 271L604 270M389 271L390 272L389 271M498 271L499 272L498 271M123.333 272.667L123.667 273.333L123.333 272.667M335.333 272.667L335.667 273.333L335.333 272.667M605 272L606 273L605 272M180 273L181 274L180 273M390 273L391 274L390 273M122 274L123 275L122 274M406 274L407 275L406 274M496 274L497 275L496 274M606 274L607 275L606 274M121 275L122 276L121 275M181 275L182 276L181 275M334.333 275.667L334.667 276.333L334.333 275.667M391 275L392 276L391 275M407 275L408 276L407 275M607 275L608 276L607 275M408 276L409 277L408 276M495 276L496 277L495 276M120 277L121 278L120 277M182.333 277.667L182.667 278.333L182.333 277.667M392 277L393 278L392 277M409 277L410 278L409 277M608.333 277.667L608.667 278.333L608.333 277.667M644 277L644 281L645 281L644 277M119 278L120 279L119 278M333 278L334 279L333 278M410 278L411 279L410 278M118 279L119 280L118 279M183 279L184 280L183 279M412 279L413 280L412 279M494 279L495 280L494 279M117 280L118 281L117 280M332 280L333 281L332 280M394 280L395 281L394 280M413 280L414 281L413 280M184 281L185 282L184 281M415.667 281.333L416.333 281.667L415.667 281.333M609.333 281.667L609.667 282.333L609.333 281.667M116 282L117 283L116 282M331 282L332 283L331 282M395 282L396 283L395 282M418 282L419 283L418 282M493 282L494 283L493 282M115 283L116 284L115 283M185 283L186 284L185 283M396 283L397 284L396 283M421 283L422 284L421 283M645 283L645 286L646 286L645 283M113 284L114 285L113 284M330 284L331 285L330 284M424.667 284.333L425.333 284.667L424.667 284.333M492 284L492 288L493 288L492 284M610 284L611 285L610 284M186 285L187 286L186 285M427.667 285.333L428.333 285.667L427.667 285.333M110 286L111 287L110 286M329 286L330 287L329 286M430 286L431 287L430 286M611 286L612 287L611 286M109 287L110 288L109 287M187 287L188 288L187 287M400 287L401 288L400 287M433 287L434 288L433 287M108 288L109 289L108 288M401 288L402 289L401 288M435.667 288.333L436.333 288.667L435.667 288.333M646.333 288.667L646.667 289.333L646.333 288.667M107 289L108 290L107 289M327 289L328 290L327 289M402 289L403 290L402 289M491 289L491 294L492 294L491 289M612.333 289.667L612.667 290.333L612.333 289.667M105 290L106 291L105 290M189 290L190 291L189 290M403 290L404 291L403 290M439 290L440 291L439 290M104 291L105 292L104 291M326 291L327 292L326 291M405 291L406 292L405 291M441 291L442 292L441 291M647.333 291.667L647.667 292.333L647.333 291.667M102 292L103 293L102 292M325 292L326 293L325 292M406 292L407 293L406 292M442 292L443 293L442 292M100 293L101 294L100 293M191 293L192 294L191 293M407 293L408 294L407 293M444 293L445 294L444 293M98 294L99 295L98 294M324 294L325 295L324 294M408.667 294.333L409.333 294.667L408.667 294.333M445 294L446 295L445 294M648 294L649 295L648 294M96 295L97 296L96 295M410 295L411 296L410 295M446 295L447 296L446 295M649 295L650 296L649 295M94 296L95 297L94 296M193 296L194 297L193 296M411.667 296.333L412.333 296.667L411.667 296.333M448 296L449 297L448 296M490 296L491 297L490 296M92 297L93 298L92 297M413 297L414 298L413 297M613 297L613 303L614 303L613 297M650.333 297.667L650.667 298.333L650.333 297.667M90 298L91 299L90 298M196 298L197 299L196 298M415 298L416 299L415 298M88 299L89 300L88 299M197 299L198 300L197 299M320 299L321 300L320 299M417 299L418 300L417 299M87 300L88 301L87 300M319 300L320 301L319 300M451 300L452 301L451 300M651 300L652 301L651 300M85 301L86 302L85 301M318 301L319 302L318 301M420 301L421 302L420 301M452 301L453 302L452 301M652 301L653 302L652 301M83 302L84 303L83 302M199 302L200 303L199 302M422 302L423 303L422 302M653 302L654 303L653 302M82 303L83 304L82 303M200 303L201 304L200 303M316 303L317 304L316 303M315 304L316 305L315 304M454 304L455 305L454 304M654 304L655 305L654 304M79 305L80 306L79 305M314 305L315 306L314 305M427.667 305.333L428.333 305.667L427.667 305.333M655 305L656 306L655 305M77 306L78 307L77 306M313 306L314 307L313 306M429 306L430 307L429 306M613.333 306.667L613.667 307.333L613.333 306.667M656 306L657 307L656 306M311 307L312 308L311 307M455 307L456 308L455 307M657 307L658 308L657 307M75 308L76 309L75 308M206 308L207 309L206 308M310 308L311 309L310 308M456 309L457 310L456 309M491 309L491 312L492 312L491 309M660 309L661 310L660 309M435 310L436 311L435 310M661 310L662 311L661 310M73 311L74 312L73 311M210 311L211 312L210 311M457 311L458 312L457 311M663 311L664 312L663 311M305 312L306 313L305 312M664 312L665 313L664 312M72.3333 313.667L72.6667 314.333L72.3333 313.667M213 313L214 314L213 313M304 313L305 314L304 313M438 313L439 314L438 313M458 313L459 314L458 313M612 313L613 314L612 313M666 313L667 314L666 313M214 314L215 315L214 314M302 314L303 315L302 314M439 314L440 315L439 314M668.667 314.333L669.333 314.667L668.667 314.333M216 315L217 316L216 315M301 315L302 316L301 315M492.333 315.667L492.667 316.333L492.333 315.667M671 315L672 316L671 315M218.667 316.333L219.333 316.667L218.667 316.333M299 316L300 317L299 316M440 316L441 317L440 316M459.333 316.667L459.667 317.333L459.333 316.667M674 316L675 317L674 316M220 317L221 318L220 317M297 317L298 318L297 317M676.667 317.333L677.333 317.667L676.667 317.333M222 318L223 319L222 318M295 318L296 319L295 318M441 318L442 319L441 318M493.333 318.667L493.667 319.333L493.333 318.667M611 318L612 319L611 318M679.667 318.333L680.333 318.667L679.667 318.333M71 319L72 320L71 319M224.667 319.333L225.333 319.667L224.667 319.333M293 319L294 320L293 319M682.667 319.333L683.333 319.667L682.667 319.333M227 320L228 321L227 320M291 320L292 321L291 320M442 320L443 321L442 320M686 320L687 321L686 320M229.667 321.333L230.333 321.667L229.667 321.333M287.667 321.333L288.333 321.667L287.667 321.333M460.333 321.667L460.667 322.333L460.333 321.667M494 321L495 322L494 321M688.667 321.333L689.333 321.667L688.667 321.333M232 322L233 323L232 322M284 322L285 323L284 322M610 322L611 323L610 322M691 322L692 323L691 322M235.667 323.333L236.333 323.667L235.667 323.333M281.667 323.333L282.333 323.667L281.667 323.333M495 323L496 324L495 323M239.667 324.333L240.333 324.667L239.667 324.333M276 324L276 325L280 325L276 324M609.333 324.667L609.667 325.333L609.333 324.667M694 324L695 325L694 324M245.667 325.333L246.333 325.667L245.667 325.333M270 325L271 326L270 325M273.667 325.333L274.333 325.667L273.667 325.333M443.333 325.667L443.667 326.333L443.333 325.667M496 325L497 326L496 325M72 326L73 327L72 326M250 326L250 327L257 327L250 326M259.667 326.333L260.333 326.667L259.667 326.333M263 326L263 327L268 327L263 326M696 326L697 327L696 326M608 327L609 328L608 327M73 328L74 329L73 328M460 328L460 333L461 333L460 328M497 328L498 329L497 328M442.333 329.667L442.667 330.333L442.333 329.667M607 329L608 330L607 329M699.333 330.667L699.667 331.333L699.333 330.667M74 331L75 332L74 331M499 331L500 332L499 331M606 331L607 332L606 331M73 332L74 333L73 332M74 333L75 334L74 333M441.333 333.667L441.667 334.333L441.333 333.667M500 333L501 334L500 333M605 333L606 334L605 333M460.333 334.667L460.667 335.333L460.333 334.667M700 334L700 337L701 337L700 334M75 335L76 336L75 335M440.333 336.667L440.667 337.333L440.333 336.667M603 336L604 337L603 336M76 337L77 338L76 337M503 337L504 338L503 337M699 337L700 338L699 337M439 339L440 340L439 339M459.333 339.667L459.667 340.333L459.333 339.667M601 339L602 340L601 339M78 340L79 341L78 340M600 340L601 341L600 340M699 341L699 344L700 344L699 341M79 342L80 343L79 342M458.333 342.667L458.667 343.333L458.333 342.667M507 342L508 343L507 342M437 343L438 344L437 343M598 343L599 344L598 343M80 344L81 345L80 344M157 344L157 345L163 345L157 344M165 344L165 345L169 345L165 344M509 344L510 345L509 344M597 344L598 345L597 344M81 345L82 346L81 345M151 345L151 346L155 346L151 345M174.667 345.333L175.333 345.667L174.667 345.333M436 345L437 346L436 345M457 345L458 346L457 345M510 345L511 346L510 345M596 345L597 346L596 345M698.333 345.667L698.667 346.333L698.333 345.667M149 346L150 347L149 346M178.667 346.333L179.333 346.667L178.667 346.333M435.333 346.667L435.667 347.333L435.333 346.667M594 346L595 347L594 346M82 347L83 348L82 347M146.667 347.333L147.333 347.667L146.667 347.333M181 347L182 348L181 347M342 347L342 348L348 348L342 347M350 347L350 348L357 348L350 347M513 347L514 348L513 347M142 348L142 349L145 349L142 348M183 348L184 349L183 348M337 348L337 349L341 349L337 348M360 348L361 349L360 348M434 348L435 349L434 348M455 348L456 349L455 348M514 348L515 349L514 348M83 349L84 350L83 349M140 349L141 350L140 349M186 349L187 350L186 349M334 349L335 350L334 349M363 349L364 350L363 349M516 349L517 350L516 349M591 349L592 350L591 349M697 349L698 350L697 349M138 350L139 351L138 350M188.667 350.333L189.333 350.667L188.667 350.333M332 350L333 351L332 350M366 350L367 351L366 350M433.333 350.667L433.667 351.333L433.333 350.667M517 350L518 351L517 350M590 350L591 351L590 350M136 351L137 352L136 351M190 351L191 352L190 351M329.667 351.333L330.333 351.667L329.667 351.333M369 351L370 352L369 351M453 351L454 352L453 351M588 351L589 352L588 351M134 352L135 353L134 352M192.667 352.333L193.333 352.667L192.667 352.333M326.667 352.333L327.333 352.667L326.667 352.333M371 352L372 353L371 352M432 352L433 353L432 352M520 352L521 353L520 352M133 353L134 354L133 353M194 353L195 354L194 353M324 353L325 354L324 353M373.667 353.333L374.333 353.667L373.667 353.333M431 353L432 354L431 353M521 353L522 354L521 353M586 353L587 354L586 353M696 353L697 354L696 353M131 354L132 355L131 354M195 354L196 355L195 354M322 354L323 355L322 354M375 354L376 355L375 354M451 354L452 355L451 354M523 354L524 355L523 354M584 354L585 355L584 354M695.333 354.667L695.667 355.333L695.333 354.667M89 355L90 356L89 355M129 355L130 356L129 355M197 355L198 356L197 355M320 355L321 356L320 355M377 355L378 356L377 355M430 355L431 356L430 355M450 355L451 356L450 355M525 355L526 356L525 355M582 355L583 356L582 355M128 356L129 357L128 356M198 356L199 357L198 356M318 356L319 357L318 356M449 356L450 357L449 356M580 356L581 357L580 356M126 357L127 358L126 357M200 357L201 358L200 357M317 357L318 358L317 357M381 357L382 358L381 357M428 357L429 358L428 357M448 357L449 358L448 357M528.667 357.333L529.333 357.667L528.667 357.333M578.667 357.333L579.333 357.667L578.667 357.333M694.333 357.667L694.667 358.333L694.333 357.667M91 358L92 359L91 358M124 358L125 359L124 358M382 358L383 359L382 358M427 358L428 359L427 358M531 358L532 359L531 358M574.667 358.333L575.333 358.667L574.667 358.333M92 359L93 360L92 359M123 359L124 360L123 359M314 359L315 360L314 359M383.667 359.333L384.333 359.667L383.667 359.333M533.667 359.333L534.333 359.667L533.667 359.333M572 359L573 360L572 359M94 360L95 361L94 360M121 360L122 361L121 360M204 360L205 361L204 360M313 360L314 361L313 360M426 360L427 361L426 360M536.667 360.333L537.333 360.667L536.667 360.333M570 360L571 361L570 360M693 360L694 361L693 360M95 361L96 362L95 361M118.667 361.333L119.333 361.667L118.667 361.333M205 361L206 362L205 361M312 361L313 362L312 361M387 361L388 362L387 361M425 361L426 362L425 361M443 361L444 362L443 361M541.667 361.333L542.333 361.667L541.667 361.333M567.667 361.333L568.333 361.667L567.667 361.333M639 361L639 362L643 362L639 361M96 362L97 363L96 362M116 362L117 363L116 362M206 362L207 363L206 362M310 362L311 363L310 362M389 362L390 363L389 362M424 362L425 363L424 362M442 362L443 363L442 362M547.667 362.333L548.333 362.667L547.667 362.333M552 362L552 363L565 363L552 362M634.667 362.333L635.333 362.667L634.667 362.333M645 362L645 363L650 363L645 362M692 362L693 363L692 362M98 363L99 364L98 363M114 363L115 364L114 363M207 363L208 364L207 363M308 363L309 364L308 363M390 363L391 364L390 363M441 363L442 364L441 363M630 363L631 364L630 363M651 363L651 364L654 364L651 363M691 363L692 364L691 363M100.667 364.333L101.333 364.667L100.667 364.333M112 364L113 365L112 364M307 364L308 365L307 364M392 364L393 365L392 364M628 364L629 365L628 364M655 364L656 365L655 364M104.667 365.333L105.333 365.667L104.667 365.333M108.667 365.333L109.333 365.667L108.667 365.333M209 365L210 366L209 365M306 365L307 366L306 365M394 365L395 366L394 365M627 365L628 366L627 365M659 365L660 366L659 365M690 365L691 366L690 365M210 366L211 367L210 366M396 366L397 367L396 366M437 366L438 367L437 366M624.667 366.333L625.333 366.667L624.667 366.333M661.667 366.333L662.333 366.667L661.667 366.333M689 366L690 367L689 366M211 367L212 368L211 367M398 367L399 368L398 367M419 367L420 368L419 367M436 367L437 368L436 367M622 367L623 368L622 367M664 367L665 368L664 367M212 368L213 369L212 368M400 368L401 369L400 368M417 368L418 369L417 368M435 368L436 369L435 368M621 368L622 369L621 368M667 368L668 369L667 368M686.667 368.333L687.333 368.667L686.667 368.333M302 369L303 370L302 369M402.667 369.333L403.333 369.667L402.667 369.333M411 369L411 370L414 370L411 369M416 369L417 370L416 369M434 369L435 370L434 369M620 369L621 370L620 369M668 369L668 370L671 370L668 369M685 369L686 370L685 369M213 370L214 371L213 370M407.667 370.333L408.333 370.667L407.667 370.333M433 370L434 371L433 370M618 370L619 371L618 370M672.667 370.333L673.333 370.667L672.667 370.333M684 370L685 371L684 370M214 371L215 372L214 371M432 371L433 372L432 371M617 371L618 372L617 371M678 371L678 372L682 372L678 371M616 372L617 373L616 372M215 373L216 374L215 373M299.333 374.667L299.667 375.333L299.333 374.667M430 374L431 375L430 374M216 375L217 376L216 375M298 376L299 377L298 376M429.333 376.667L429.667 377.333L429.333 376.667M217 377L218 378L217 377M297 378L298 379L297 378M610 378L611 379L610 378M218 379L219 380L218 379M609 379L610 380L609 379M296 380L297 381L296 380M608 380L609 381L608 380M219.333 381.667L219.667 382.333L219.333 381.667M295.333 382.667L295.667 383.333L295.333 382.667M607 382L608 383L607 382M429.333 383.667L429.667 384.333L429.333 383.667M606 383L607 384L606 383M220.333 385.667L220.667 386.333L220.333 385.667M294.333 386.667L294.667 387.333L294.333 386.667M430 387L431 388L430 387M500.667 387.333L501.333 387.667L500.667 387.333M509 387L509 388L515 388L509 387M604 387L605 388L604 387M221 388L221 393L222 393L221 388M495.667 388.333L496.333 388.667L495.667 388.333M516.667 388.333L517.333 388.667L516.667 388.333M603.333 388.667L603.667 389.333L603.333 388.667M431 389L432 390L431 389M493 389L494 390L493 389M520 389L521 390L520 389M432 390L433 391L432 390M523 390L524 391L523 390M293.333 391.667L293.667 392.333L293.333 391.667M489.667 391.333L490.333 391.667L489.667 391.333M525 391L525 392L528 392L525 391M602 391L603 392L602 391M63.6667 392.333L64.3333 392.667L63.6667 392.333z"/>
<path style="fill:#a8a8a8; stroke:none;" d="M65 392L65 393L82 393L65 392z"/>
<path style="fill:#f3c49a; stroke:none;" d="M82.6667 392.333L83.3333 392.667L82.6667 392.333M433 392L434 393L433 392M487 392L488 393L487 392M528 392L529 393L528 392M55 393L56 394L55 393z"/>
<path style="fill:#a8a8a8; stroke:none;" d="M56 393L56 394L59 394L56 393z"/>
<path style="fill:#5c5c5c; stroke:none;" d="M0 481L3 481C7.55238 423.795 78.809 391.83 120.996 434.004C127.46 440.465 132.442 447.641 136.138 456C139.596 463.822 142.625 472.399 143 481L168 481C165.456 421.743 109.847 384.547 54 394.25C35.5031 397.464 12.0715 407.286 1.74228 424C-1.30873 428.937 0 436.434 0 442L0 481z"/>
<path style="fill:#a8a8a8; stroke:none;" d="M88 393L88 394L91 394L88 393z"/>
<path style="fill:#f3c49a; stroke:none;" d="M91 393L92 394L91 393M486 393L487 394L486 393M530 393L531 394L530 393z"/>
<path style="fill:#a8a8a8; stroke:none;" d="M50 394L50 395L53 395L50 394M94.6667 394.333L95.3333 394.667L94.6667 394.333z"/>
<path style="fill:#f3c49a; stroke:none;" d="M96 394L97 395L96 394M485 394L486 395L485 394z"/>
<path style="fill:#a8a8a8; stroke:none;" d="M46.6667 395.333L47.3333 395.667L46.6667 395.333M99 395L100 396L99 395z"/>
<path style="fill:#f3c49a; stroke:none;" d="M100 395L101 396L100 395M483 395L484 396L483 395M533 395L534 396L533 395M601.333 395.667L601.667 396.333L601.333 395.667M42 396L43 397L42 396z"/>
<path style="fill:#a8a8a8; stroke:none;" d="M43 396L44 397L43 396M102.667 396.333L103.333 396.667L102.667 396.333z"/>
<path style="fill:#f3c49a; stroke:none;" d="M436 396L437 397L436 396M482 396L483 397L482 396M535 396L536 397L535 396M39 397L40 398L39 397z"/>
<path style="fill:#a8a8a8; stroke:none;" d="M40 397L41 398L40 397M106 397L107 398L106 397z"/>
<path style="fill:#f3c49a; stroke:none;" d="M292 397L292 401L293 401L292 397M437 397L438 398L437 397M481 397L482 398L481 397M536 397L537 398L536 397z"/>
<path style="fill:#a8a8a8; stroke:none;" d="M37 398L38 399L37 398M108.667 398.333L109.333 398.667L108.667 398.333z"/>
<path style="fill:#f3c49a; stroke:none;" d="M222 398L222 409L223 409L222 398M538 398L539 399L538 398M34 399L35 400L34 399z"/>
<path style="fill:#a8a8a8; stroke:none;" d="M35 399L36 400L35 399M111 399L112 400L111 399z"/>
<path style="fill:#f3c49a; stroke:none;" d="M439 399L440 400L439 399M539 399L540 400L539 399z"/>
<path style="fill:#a8a8a8; stroke:none;" d="M32 400L33 401L32 400M113 400L114 401L113 400z"/>
<path style="fill:#f3c49a; stroke:none;" d="M114 400L115 401L114 400M478 400L479 401L478 400M540 400L541 401L540 400z"/>
<path style="fill:#a8a8a8; stroke:none;" d="M30 401L31 402L30 401z"/>
<path style="fill:#f3c49a; stroke:none;" d="M116 401L117 402L116 401M476 401L477 402L476 401M541 401L542 402L541 401z"/>
<path style="fill:#a8a8a8; stroke:none;" d="M28 402L29 403L28 402z"/>
<path style="fill:#f3c49a; stroke:none;" d="M118 402L119 403L118 402M292 402L292 413L293 413L292 402M542.333 402.667L542.667 403.333L542.333 402.667z"/>
<path style="fill:#a8a8a8; stroke:none;" d="M26 403L27 404L26 403z"/>
<path style="fill:#f3c49a; stroke:none;" d="M120 403L121 404L120 403M442 403L443 404L442 403M474 403L475 404L474 403M24 404L25 405L24 404z"/>
<path style="fill:#a8a8a8; stroke:none;" d="M121 404L122 405L121 404z"/>
<path style="fill:#f3c49a; stroke:none;" d="M443 404L444 405L443 404M473 404L474 405L473 404M544 404L545 405L544 404z"/>
<path style="fill:#a8a8a8; stroke:none;" d="M23 405L24 406L23 405M123 405L124 406L123 405z"/>
<path style="fill:#f3c49a; stroke:none;" d="M472 405L473 406L472 405z"/>
<path style="fill:#a8a8a8; stroke:none;" d="M21 406L22 407L21 406z"/>
<path style="fill:#f3c49a; stroke:none;" d="M125 406L126 407L125 406M446 406L447 407L446 406M19 407L20 408L19 407z"/>
<path style="fill:#a8a8a8; stroke:none;" d="M126 407L127 408L126 407z"/>
<path style="fill:#f3c49a; stroke:none;" d="M447 407L448 408L447 407z"/>
<path style="fill:#a8a8a8; stroke:none;" d="M18 408L19 409L18 408z"/>
<path style="fill:#f3c49a; stroke:none;" d="M128 408L129 409L128 408M469 408L470 409L469 408M546 408L547 409L546 408z"/>
<path style="fill:#a8a8a8; stroke:none;" d="M129 409L130 410L129 409z"/>
<path style="fill:#f3c49a; stroke:none;" d="M450 409L451 410L450 409M467 409L468 410L467 409M547 409L548 410L547 409M15 410L16 411L15 410M452 410L453 411L452 410M465 410L466 411L465 410M601 410L601 413L602 413L601 410z"/>
<path style="fill:#a8a8a8; stroke:none;" d="M14 411L15 412L14 411z"/>
<path style="fill:#f3c49a; stroke:none;" d="M132 411L133 412L132 411M222.333 411.667L222.667 412.333L222.333 411.667M453 411L453 412L456 412L453 411M548 411L549 412L548 411z"/>
<path style="fill:#a8a8a8; stroke:none;" d="M13 412L14 413L13 412M133 412L134 413L133 412z"/>
<path style="fill:#f3c49a; stroke:none;" d="M457 412L457 413L462 413L457 412z"/>
<path style="fill:#a8a8a8; stroke:none;" d="M134 413L135 414L134 413z"/>
<path style="fill:#f3c49a; stroke:none;" d="M10 414L11 415L10 414z"/>
<path style="fill:#a8a8a8; stroke:none;" d="M72.6667 414.333L73.3333 414.667L72.6667 414.333z"/>
<path style="fill:#f3c49a; stroke:none;" d="M9 415L10 416L9 415z"/>
<path style="fill:#a8a8a8; stroke:none;" d="M61.6667 415.333L62.3333 415.667L61.6667 415.333z"/>
<path style="fill:#f3c49a; stroke:none;" d="M63.6667 415.333L64.3333 415.667L63.6667 415.333z"/>
<path style="fill:#ffffff; stroke:none;" d="M3 481L143 481C139.751 463.755 134.35 447.027 121.829 434.09C96.9906 408.424 50.5379 408.864 25.2855 433.428C12.025 446.327 6.43372 463.294 3 481z"/>
<path style="fill:#f3c49a; stroke:none;" d="M81.6667 415.333L82.3333 415.667L81.6667 415.333z"/>
<path style="fill:#a8a8a8; stroke:none;" d="M83 415L83 416L86 416L83 415z"/>
<path style="fill:#f3c49a; stroke:none;" d="M292 415L292 420L293 420L292 415M549 415L550 416L549 415M602 415L602 418L603 418L602 415z"/>
<path style="fill:#a8a8a8; stroke:none;" d="M8 416L9 417L8 416M56 416L57 417L56 416z"/>
<path style="fill:#f3c49a; stroke:none;" d="M57 416L58 417L57 416M88 416L89 417L88 416z"/>
<path style="fill:#a8a8a8; stroke:none;" d="M89 416L90 417L89 416z"/>
<path style="fill:#5c5c5c; stroke:none;" d="M349 416L349 457L321 457L321 477L349 477L349 481L373 481L373 477L417 477L417 457L373 457L373 416L349 416z"/>
<path style="fill:#a8a8a8; stroke:none;" d="M7 417L8 418L7 417M52 417L53 418L52 417z"/>
<path style="fill:#f3c49a; stroke:none;" d="M53 417L54 418L53 417M92 417L93 418L92 417z"/>
<path style="fill:#a8a8a8; stroke:none;" d="M93 417L94 418L93 417z"/>
<path style="fill:#f3c49a; stroke:none;" d="M139 417L140 418L139 417M550 417L551 418L550 417z"/>
<path style="fill:#a8a8a8; stroke:none;" d="M6 418L7 419L6 418M49 418L50 419L49 418z"/>
<path style="fill:#f3c49a; stroke:none;" d="M50 418L51 419L50 418z"/>
<path style="fill:#a8a8a8; stroke:none;" d="M96 418L97 419L96 418z"/>
<path style="fill:#f3c49a; stroke:none;" d="M140 418L141 419L140 418z"/>
<path style="fill:#a8a8a8; stroke:none;" d="M5 419L6 420L5 419M46 419L47 420L46 419z"/>
<path style="fill:#f3c49a; stroke:none;" d="M47 419L48 420L47 419M98 419L99 420L98 419z"/>
<path style="fill:#a8a8a8; stroke:none;" d="M99 419L100 420L99 419z"/>
<path style="fill:#f3c49a; stroke:none;" d="M141 419L142 420L141 419M551.333 419.667L551.667 420.333L551.333 419.667z"/>
<path style="fill:#a8a8a8; stroke:none;" d="M4 420L5 421L4 420M44 420L45 421L44 420M101 420L102 421L101 420z"/>
<path style="fill:#f3c49a; stroke:none;" d="M222 420L223 421L222 420M603.333 420.667L603.667 421.333L603.333 420.667M3 421L4 422L3 421z"/>
<path style="fill:#a8a8a8; stroke:none;" d="M42 421L43 422L42 421z"/>
<path style="fill:#f3c49a; stroke:none;" d="M103 421L104 422L103 421z"/>
<path style="fill:#a8a8a8; stroke:none;" d="M104 421L105 422L104 421z"/>
<path style="fill:#f3c49a; stroke:none;" d="M2 422L3 423L2 422M40 422L41 423L40 422M105 422L106 423L105 422M292 422L292 426L293 426L292 422z"/>
<path style="fill:#a8a8a8; stroke:none;" d="M38 423L39 424L38 423z"/>
<path style="fill:#f3c49a; stroke:none;" d="M107 423L108 424L107 423z"/>
<path style="fill:#a8a8a8; stroke:none;" d="M144 423L145 424L144 423z"/>
<path style="fill:#f3c49a; stroke:none;" d="M552.333 423.667L552.667 424.333L552.333 423.667z"/>
<path style="fill:#a8a8a8; stroke:none;" d="M36 424L37 425L36 424M109 424L110 425L109 424M145 424L146 425L145 424z"/>
<path style="fill:#f3c49a; stroke:none;" d="M222 424L222 428L223 428L222 424M604.333 424.667L604.667 425.333L604.333 424.667z"/>
<path style="fill:#a8a8a8; stroke:none;" d="M0 425L1 426L0 425z"/>
<path style="fill:#f3c49a; stroke:none;" d="M35 425L36 426L35 425z"/>
<path style="fill:#a8a8a8; stroke:none;" d="M146 425L147 426L146 425M33 426L34 427L33 426M112 426L113 427L112 426z"/>
<path style="fill:#f3c49a; stroke:none;" d="M147 426L148 427L147 426M32 427L33 428L32 427z"/>
<path style="fill:#a8a8a8; stroke:none;" d="M30 428L31 429L30 428M115 428L116 429L115 428M148 428L149 429L148 428M29 429L30 430L29 429M116 429L117 430L116 429M149 429L150 430L149 429z"/>
<path style="fill:#f3c49a; stroke:none;" d="M553 429L553 433L554 433L553 429M605 429L605 432L606 432L605 429z"/>
<path style="fill:#a8a8a8; stroke:none;" d="M28 430L29 431L28 430z"/>
<path style="fill:#f3c49a; stroke:none;" d="M117 430L118 431L117 430M223 430L224 431L223 430M291.333 430.667L291.667 431.333L291.333 430.667M27 431L28 432L27 431M26 432L27 433L26 432z"/>
<path style="fill:#a8a8a8; stroke:none;" d="M151 432L152 433L151 432z"/>
<path style="fill:#f3c49a; stroke:none;" d="M224 432L225 433L224 432M290 433L291 434L290 433z"/>
<path style="fill:#a8a8a8; stroke:none;" d="M152 434L153 435L152 434z"/>
<path style="fill:#f3c49a; stroke:none;" d="M225 434L226 435L225 434M23 435L24 436L23 435z"/>
<path style="fill:#a8a8a8; stroke:none;" d="M153 435L154 436L153 435z"/>
<path style="fill:#f3c49a; stroke:none;" d="M289 435L290 436L289 435M22 436L23 437L22 436M288 436L289 437L288 436M554 436L555 437L554 436M605 436L606 437L605 436M21 437L22 438L21 437M124 437L125 438L124 437z"/>
<path style="fill:#a8a8a8; stroke:none;" d="M154 437L155 438L154 437z"/>
<path style="fill:#f3c49a; stroke:none;" d="M227 437L228 438L227 437M287 437L288 438L287 437z"/>
<path style="fill:#a8a8a8; stroke:none;" d="M20 438L21 439L20 438M125 438L126 439L125 438z"/>
<path style="fill:#f3c49a; stroke:none;" d="M228 438L229 439L228 438M286 438L287 439L286 438M555 438L556 439L555 438M604 438L605 439L604 438z"/>
<path style="fill:#a8a8a8; stroke:none;" d="M19 439L20 440L19 439M126 439L127 440L126 439M155 439L156 440L155 439z"/>
<path style="fill:#f3c49a; stroke:none;" d="M229 439L230 440L229 439M230 440L231 441L230 440M556.333 440.667L556.667 441.333L556.333 440.667M603 440L604 441L603 440z"/>
<path style="fill:#a8a8a8; stroke:none;" d="M156 441L157 442L156 441z"/>
<path style="fill:#f3c49a; stroke:none;" d="M232 441L233 442L232 441M284 441L285 442L284 441M602 441L603 442L602 441z"/>
<path style="fill:#a8a8a8; stroke:none;" d="M17 442L18 443L17 442z"/>
<path style="fill:#f3c49a; stroke:none;" d="M128 442L129 443L128 442M157 442L158 443L157 442M234 442L235 443L234 442M282 442L283 443L282 442z"/>
<path style="fill:#a8a8a8; stroke:none;" d="M16 443L17 444L16 443M129 443L130 444L129 443M157 443L158 444L157 443z"/>
<path style="fill:#f3c49a; stroke:none;" d="M236.667 443.333L237.333 443.667L236.667 443.333M277.667 443.333L278.333 443.667L277.667 443.333M557 443L558 444L557 443M601 443L602 444L601 443M240.667 444.333L241.333 444.667L240.667 444.333M274.667 444.333L275.333 444.667L274.667 444.333M279 444L280 445L279 444M599 444L600 445L599 444z"/>
<path style="fill:#a8a8a8; stroke:none;" d="M15 445L16 446L15 445z"/>
<path style="fill:#f3c49a; stroke:none;" d="M130 445L131 446L130 445z"/>
<path style="fill:#a8a8a8; stroke:none;" d="M158 445L159 446L158 445z"/>
<path style="fill:#f3c49a; stroke:none;" d="M245 445L245 446L248 446L245 445M250 445L251 446L250 445M268 445L268 446L273 446L268 445M558 445L559 446L558 445M596 445L597 446L596 445z"/>
<path style="fill:#a8a8a8; stroke:none;" d="M131 446L132 447L131 446z"/>
<path style="fill:#f3c49a; stroke:none;" d="M255.667 446.333L256.333 446.667L255.667 446.333M260.667 446.333L261.333 446.667L260.667 446.333M559 446L560 447L559 446M595 446L596 447L595 446M14 447L15 448L14 447z"/>
<path style="fill:#a8a8a8; stroke:none;" d="M159 447L160 448L159 447z"/>
<path style="fill:#f3c49a; stroke:none;" d="M560 447L561 448L560 447M593 447L594 448L593 447z"/>
<path style="fill:#a8a8a8; stroke:none;" d="M13 448L14 449L13 448M132 448L133 449L132 448z"/>
<path style="fill:#f3c49a; stroke:none;" d="M561 448L562 449L561 448M588 448L588 449L591 449L588 448z"/>
<path style="fill:#a8a8a8; stroke:none;" d="M160 449L161 450L160 449z"/>
<path style="fill:#f3c49a; stroke:none;" d="M564 449L565 450L564 449M583 449L583 450L586 450L583 449z"/>
<path style="fill:#a8a8a8; stroke:none;" d="M12 450L13 451L12 450M133 450L134 451L133 450z"/>
<path style="fill:#f3c49a; stroke:none;" d="M566 450L566 451L571 451L566 450M577 450L577 451L580 451L577 450M161 451L162 452L161 451M573 451L574 452L573 451z"/>
<path style="fill:#a8a8a8; stroke:none;" d="M11 452L12 453L11 452M134 452L135 453L134 452M161 452L162 453L161 452z"/>
<path style="fill:#f3c49a; stroke:none;" d="M473.667 452.333L474.333 452.667L473.667 452.333z"/>
<path style="fill:#a8a8a8; stroke:none;" d="M475 452L475 453L482 453L475 452z"/>
<path style="fill:#f3c49a; stroke:none;" d="M482 452L482 453L485 453L482 452M600 452L600 453L603 453L600 452z"/>
<path style="fill:#a8a8a8; stroke:none;" d="M603 452L603 453L609 453L603 452z"/>
<path style="fill:#f3c49a; stroke:none;" d="M609 452L609 453L612 453L609 452M465 453L466 454L465 453z"/>
<path style="fill:#a8a8a8; stroke:none;" d="M466 453L466 454L469 454L466 453z"/>
<path style="fill:#5c5c5c; stroke:none;" d="M430 481C438.02 481 448.268 482.706 456 480.49C463.488 478.344 468.769 473.666 477 473.09C492.046 472.035 505.902 476.413 520 481C520 475.959 521.955 465.758 518.972 461.51C515.229 456.179 500.991 454.85 495 454.001C473.359 450.933 435.286 453.667 430 481z"/>
<path style="fill:#a8a8a8; stroke:none;" d="M491 453L491 454L494 454L491 453z"/>
<path style="fill:#f3c49a; stroke:none;" d="M494 453L495 454L494 453M592 453L593 454L592 453z"/>
<path style="fill:#a8a8a8; stroke:none;" d="M593 453L593 454L596 454L593 453z"/>
<path style="fill:#5c5c5c; stroke:none;" d="M550 481L580 480.606L606 473.002L632 480.582L662 481C641.335 440.518 572.178 445.544 550 481z"/>
<path style="fill:#a8a8a8; stroke:none;" d="M617.667 453.333L618.333 453.667L617.667 453.333z"/>
<path style="fill:#f3c49a; stroke:none;" d="M619 453L620 454L619 453z"/>
<path style="fill:#a8a8a8; stroke:none;" d="M10 454L11 455L10 454M135 454L136 455L135 454z"/>
<path style="fill:#f3c49a; stroke:none;" d="M162 454L163 455L162 454M460 454L461 455L460 454z"/>
<path style="fill:#a8a8a8; stroke:none;" d="M461.667 454.333L462.333 454.667L461.667 454.333M498.667 454.333L499.333 454.667L498.667 454.333z"/>
<path style="fill:#f3c49a; stroke:none;" d="M500 454L501 455L500 454M587 454L588 455L587 454z"/>
<path style="fill:#a8a8a8; stroke:none;" d="M588.667 454.333L589.333 454.667L588.667 454.333M623.667 454.333L624.333 454.667L623.667 454.333M162 455L163 456L162 455M457.667 455.333L458.333 455.667L457.667 455.333M502.667 455.333L503.333 455.667L502.667 455.333z"/>
<path style="fill:#f3c49a; stroke:none;" d="M504 455L505 456L504 455M583 455L584 456L583 455z"/>
<path style="fill:#a8a8a8; stroke:none;" d="M584.667 455.333L585.333 455.667L584.667 455.333M627 455L628 456L627 455z"/>
<path style="fill:#f3c49a; stroke:none;" d="M628 455L629 456L628 455z"/>
<path style="fill:#a8a8a8; stroke:none;" d="M9 456L10 457L9 456M136 456L137 457L136 456M194 456L194 457L217 457L217 481L218 481L218 456L194 456z"/>
<path style="fill:#f3c49a; stroke:none;" d="M290 456L291 457L290 456z"/>
<path style="fill:#a8a8a8; stroke:none;" d="M290 481L291 481L291 457L314 457L314 481C315.804 476.701 317.029 461.463 313.972 457.603C311.534 454.525 293.466 454.525 291.028 457.603C287.526 462.025 290 475.49 290 481z"/>
<path style="fill:#f3c49a; stroke:none;" d="M314 456L315 457L314 456M320 456L321 457L320 456z"/>
<path style="fill:#a8a8a8; stroke:none;" d="M321 456L321 457L349 457L321 456M373 456L373 457L417 457C405.537 452.19 385.48 456 373 456z"/>
<path style="fill:#f3c49a; stroke:none;" d="M454 456L455 457L454 456z"/>
<path style="fill:#a8a8a8; stroke:none;" d="M455 456L456 457L455 456M507 456L508 457L507 456z"/>
<path style="fill:#f3c49a; stroke:none;" d="M508 456L509 457L508 456z"/>
<path style="fill:#a8a8a8; stroke:none;" d="M581 456L582 457L581 456M630 456L631 457L630 456z"/>
<path style="fill:#f3c49a; stroke:none;" d="M631 456L632 457L631 456M694 456L695 457L694 456z"/>
<path style="fill:#a8a8a8; stroke:none;" d="M694 481L695 481L695 457L718 457L718 481C719.804 476.701 721.029 461.463 717.972 457.603C715.534 454.525 697.466 454.525 695.028 457.603C691.526 462.025 694 475.49 694 481z"/>
<path style="fill:#f3c49a; stroke:none;" d="M718 456L719 457L718 456M9 457L10 458L9 457M163 457L164 458L163 457M193 457L193 481L194 481L193 457z"/>
<path style="fill:#5c5c5c; stroke:none;" d="M194 457L194 481L217 481L217 457L194 457M291 457L291 481L314 481L314 457L291 457z"/>
<path style="fill:#a8a8a8; stroke:none;" d="M320 457L320 477L321 477L320 457M452 457L453 458L452 457M510 457L511 458L510 457z"/>
<path style="fill:#f3c49a; stroke:none;" d="M511 457L512 458L511 457z"/>
<path style="fill:#a8a8a8; stroke:none;" d="M578 457L579 458L578 457M633 457L634 458L633 457z"/>
<path style="fill:#5c5c5c; stroke:none;" d="M695 457L695 481L718 481L718 457L695 457z"/>
<path style="fill:#a8a8a8; stroke:none;" d="M163 458L164 459L163 458M450 458L451 459L450 458M513 458L514 459L513 458z"/>
<path style="fill:#f3c49a; stroke:none;" d="M514 458L515 459L514 458z"/>
<path style="fill:#a8a8a8; stroke:none;" d="M576 458L577 459L576 458M635 458L636 459L635 458z"/>
<path style="fill:#f3c49a; stroke:none;" d="M636 458L637 459L636 458z"/>
<path style="fill:#a8a8a8; stroke:none;" d="M8 459L9 460L8 459z"/>
<path style="fill:#f3c49a; stroke:none;" d="M137 459L138 460L137 459z"/>
<path style="fill:#a8a8a8; stroke:none;" d="M448 459L449 460L448 459M516 459L517 460L516 459z"/>
<path style="fill:#f3c49a; stroke:none;" d="M517 459L518 460L517 459z"/>
<path style="fill:#a8a8a8; stroke:none;" d="M574 459L575 460L574 459z"/>
<path style="fill:#f3c49a; stroke:none;" d="M638 459L639 460L638 459M164 460L165 461L164 460z"/>
<path style="fill:#a8a8a8; stroke:none;" d="M446 460L447 461L446 460M519 460L520 461L519 460M572 460L573 461L572 460z"/>
<path style="fill:#f3c49a; stroke:none;" d="M640 460L641 461L640 460z"/>
<path style="fill:#a8a8a8; stroke:none;" d="M7 461L8 462L7 461M138 461L139 462L138 461M164 461L165 462L164 461z"/>
<path style="fill:#f3c49a; stroke:none;" d="M444 461L445 462L444 461z"/>
<path style="fill:#a8a8a8; stroke:none;" d="M570 461L571 462L570 461M641 461L642 462L641 461z"/>
<path style="fill:#f3c49a; stroke:none;" d="M7 462L8 463L7 462M138 462L139 463L138 462z"/>
<path style="fill:#a8a8a8; stroke:none;" d="M443 462L444 463L443 462z"/>
<path style="fill:#f3c49a; stroke:none;" d="M568 462L569 463L568 462z"/>
<path style="fill:#a8a8a8; stroke:none;" d="M643 462L644 463L643 462M567 463L568 464L567 463z"/>
<path style="fill:#f3c49a; stroke:none;" d="M645 463L646 464L645 463z"/>
<path style="fill:#a8a8a8; stroke:none;" d="M6 464L7 465L6 464M139 464L140 465L139 464M165.333 464.667L165.667 465.333L165.333 464.667z"/>
<path style="fill:#f3c49a; stroke:none;" d="M440 464L441 465L440 464M565 464L566 465L565 464z"/>
<path style="fill:#a8a8a8; stroke:none;" d="M646 464L647 465L646 464z"/>
<path style="fill:#f3c49a; stroke:none;" d="M6 465L7 466L6 465M139 465L140 466L139 465z"/>
<path style="fill:#a8a8a8; stroke:none;" d="M439 465L440 466L439 465M564 465L565 466L564 465M438 466L439 467L438 466M649 466L650 467L649 466M5.33333 467.667L5.66667 468.333L5.33333 467.667M140.333 467.667L140.667 468.333L140.333 467.667M437 467L438 468L437 467z"/>
<path style="fill:#f3c49a; stroke:none;" d="M561 467L562 468L561 467z"/>
<path style="fill:#a8a8a8; stroke:none;" d="M650 467L651 468L650 467z"/>
<path style="fill:#f3c49a; stroke:none;" d="M166 468L167 469L166 468M436 468L437 469L436 468M560 468L561 469L560 468z"/>
<path style="fill:#a8a8a8; stroke:none;" d="M651 468L652 469L651 468z"/>
<path style="fill:#f3c49a; stroke:none;" d="M5 469L6 470L5 469z"/>
<path style="fill:#a8a8a8; stroke:none;" d="M166 469L167 470L166 469z"/>
<path style="fill:#f3c49a; stroke:none;" d="M435 469L436 470L435 469z"/>
<path style="fill:#a8a8a8; stroke:none;" d="M559 469L560 470L559 469M558 470L559 471L558 470M4.33333 471.667L4.66667 472.333L4.33333 471.667M141.333 471.667L141.667 472.333L141.333 471.667M434 471L435 472L434 471M557 471L558 472L557 471M433 472L434 473L433 472M556 472L557 473L556 472z"/>
<path style="fill:#f3c49a; stroke:none;" d="M4 473L5 474L4 473z"/>
<path style="fill:#a8a8a8; stroke:none;" d="M167 473L167 476L168 476L167 473M473 473L473 474L477 474L473 473z"/>
<path style="fill:#f3c49a; stroke:none;" d="M477.667 473.333L478.333 473.667L477.667 473.333z"/>
<path style="fill:#ffffff; stroke:none;" d="M458 480L458 481L517 481C501.41 471.19 473.413 469.93 458 480z"/>
<path style="fill:#f3c49a; stroke:none;" d="M485 473L485 474L488 474L485 473z"/>
<path style="fill:#a8a8a8; stroke:none;" d="M488 473L488 474L492 474L488 473M555 473L556 474L555 473M598 473L598 474L601 474L598 473z"/>
<path style="fill:#f3c49a; stroke:none;" d="M601.667 473.333L602.333 473.667L601.667 473.333z"/>
<path style="fill:#ffffff; stroke:none;" d="M582 480L582 481L630 481C616.062 469.01 596.989 473.22 582 480z"/>
<path style="fill:#f3c49a; stroke:none;" d="M609.667 473.333L610.333 473.667L609.667 473.333z"/>
<path style="fill:#a8a8a8; stroke:none;" d="M611 473L611 474L614 474L611 473M432 474L433 475L432 474M468.667 474.333L469.333 474.667L468.667 474.333z"/>
<path style="fill:#f3c49a; stroke:none;" d="M470 474L471 475L470 474M495 474L496 475L495 474z"/>
<path style="fill:#a8a8a8; stroke:none;" d="M496.667 474.333L497.333 474.667L496.667 474.333z"/>
<path style="fill:#f3c49a; stroke:none;" d="M554 474L555 475L554 474z"/>
<path style="fill:#a8a8a8; stroke:none;" d="M594 474L595 475L594 474z"/>
<path style="fill:#f3c49a; stroke:none;" d="M595 474L596 475L595 474M616 474L617 475L616 474z"/>
<path style="fill:#a8a8a8; stroke:none;" d="M617 474L618 475L617 474M657 474L658 475L657 474M142 475L142 478L143 478L142 475z"/>
<path style="fill:#f3c49a; stroke:none;" d="M431 475L432 476L431 475z"/>
<path style="fill:#a8a8a8; stroke:none;" d="M465.667 475.333L466.333 475.667L465.667 475.333z"/>
<path style="fill:#f3c49a; stroke:none;" d="M500 475L501 476L500 475z"/>
<path style="fill:#a8a8a8; stroke:none;" d="M501.667 475.333L502.333 475.667L501.667 475.333z"/>
<path style="fill:#f3c49a; stroke:none;" d="M553 475L554 476L553 475z"/>
<path style="fill:#a8a8a8; stroke:none;" d="M591 475L592 476L591 475M620 475L621 476L620 475M658 475L659 476L658 475M3.33333 476.667L3.66667 477.333L3.33333 476.667M463 476L464 477L463 476z"/>
<path style="fill:#f3c49a; stroke:none;" d="M504 476L505 477L504 476z"/>
<path style="fill:#a8a8a8; stroke:none;" d="M505.667 476.333L506.333 476.667L505.667 476.333M588 476L589 477L588 476z"/>
<path style="fill:#f3c49a; stroke:none;" d="M589 476L590 477L589 476M622 476L623 477L622 476z"/>
<path style="fill:#a8a8a8; stroke:none;" d="M623 476L624 477L623 476M659 476L660 477L659 476z"/>
<path style="fill:#f3c49a; stroke:none;" d="M430 477L431 478L430 477z"/>
<path style="fill:#a8a8a8; stroke:none;" d="M461 477L462 478L461 477z"/>
<path style="fill:#f3c49a; stroke:none;" d="M508 477L509 478L508 477z"/>
<path style="fill:#a8a8a8; stroke:none;" d="M509 477L510 478L509 477M552 477L553 478L552 477M586 477L587 478L586 477M625 477L626 478L625 477z"/>
<path style="fill:#f3c49a; stroke:none;" d="M3 478L4 479L3 478M142 478L143 479L142 478M460 478L461 479L460 478M511 478L512 479L511 478z"/>
<path style="fill:#a8a8a8; stroke:none;" d="M512 478L513 479L512 478M551 478L552 479L551 478z"/>
<path style="fill:#f3c49a; stroke:none;" d="M585 478L586 479L585 478M626 478L627 479L626 478z"/>
<path style="fill:#a8a8a8; stroke:none;" d="M627 478L628 479L627 478z"/>
<path style="fill:#f3c49a; stroke:none;" d="M168 479L169 480L168 479M429 479L430 480L429 479z"/>
<path style="fill:#a8a8a8; stroke:none;" d="M458 479L459 480L458 479z"/>
<path style="fill:#f3c49a; stroke:none;" d="M514 479L515 480L514 479z"/>
<path style="fill:#a8a8a8; stroke:none;" d="M515 479L516 480L515 479z"/>
<path style="fill:#f3c49a; stroke:none;" d="M550 479L551 480L550 479z"/>
<path style="fill:#a8a8a8; stroke:none;" d="M583 479L584 480L583 479M628 479L629 480L628 479M661 479L662 480L661 479M168 480L169 481L168 480M429 480L430 481L429 480M457 480L458 481L457 480z"/>
<path style="fill:#f3c49a; stroke:none;" d="M517 480L518 481L517 480z"/>
<path style="fill:#a8a8a8; stroke:none;" d="M518 480L519 481L518 480M581 480L582 481L581 480M630 480L631 481L630 480z"/>
<path style="fill:#f3c49a; stroke:none;" d="M662 480L663 481L662 480z"/>
</svg>
